<svg width="519" height="229" viewBox="0 0 519 229" xmlns="http://www.w3.org/2000/svg"><title>Untitled</title><defs><linearGradient x1="87.697%" y1="-7.587%" x2="11.974%" y2="108.148%" id="a"><stop stop-color="#747474" offset="0%"/><stop stop-color="#8A8A8A" offset="100%"/></linearGradient><linearGradient x1="83.811%" y1="-14.025%" x2="18.403%" y2="150.249%" id="b"><stop stop-color="#A687BC" offset="0%"/><stop stop-color="#999CCB" offset="100%"/></linearGradient><linearGradient x1="100.017%" y1="-5.457%" x2="10.729%" y2="125.16%" id="c"><stop stop-color="#A7AAD4" offset="0%"/><stop stop-color="#97CFE3" offset="100%"/></linearGradient><linearGradient x1="84.521%" y1="-48.078%" x2="-23.308%" y2="231.853%" id="d"><stop stop-color="#59B25F" offset="0%"/><stop stop-color="#729A45" offset="100%"/></linearGradient><linearGradient x1="73.931%" y1="-20.918%" x2="-15.6%" y2="215.18%" id="e"><stop stop-color="#529B49" offset="0%"/><stop stop-color="#A49F3E" offset="100%"/></linearGradient><linearGradient x1="100.874%" y1="-2.683%" x2="-127.289%" y2="444.922%" id="f"><stop stop-color="#2A9F5D" offset="0%"/><stop stop-color="#5CA94C" offset="100%"/></linearGradient><linearGradient x1="73.415%" y1="-42.344%" x2="-17.569%" y2="191.477%" id="g"><stop stop-color="#A4CFDF" offset="0%"/><stop stop-color="#7DCABB" offset="100%"/></linearGradient><linearGradient x1="70.155%" y1="-52.054%" x2="11.611%" y2="203.127%" id="h"><stop stop-color="#69C4B0" offset="0%"/><stop stop-color="#5CC0A6" offset="100%"/></linearGradient><linearGradient x1="78.858%" y1="-122.138%" x2="19.994%" y2="240.511%" id="i"><stop stop-color="#42BA9A" offset="0%"/><stop stop-color="#5EC1A8" offset="100%"/></linearGradient><linearGradient x1="89.877%" y1="12.947%" x2="26.99%" y2="115.372%" id="j"><stop stop-color="#5B5B5B" offset="0%"/><stop stop-color="#5A5A5A" offset="100%"/></linearGradient><linearGradient x1="78.842%" y1="-44.816%" x2="17.759%" y2="99.331%" id="k"><stop stop-color="#565656" offset="0%"/><stop stop-color="#5F5F5F" offset="100%"/></linearGradient><linearGradient x1="84.965%" y1="-6.63%" x2="13.585%" y2="135.722%" id="l"><stop stop-color="#909090" offset="0%"/><stop stop-color="#6F6F6F" offset="100%"/></linearGradient><linearGradient x1="400.485%" y1="-45.122%" x2="-94.905%" y2="107.299%" id="m"><stop stop-color="#868686" offset="0%"/><stop stop-color="#7F7F7F" offset="100%"/></linearGradient><linearGradient x1="66.271%" y1="-18.913%" x2="30.048%" y2="105.077%" id="n"><stop stop-color="#7E7E7E" offset="0%"/><stop stop-color="#6C6C6C" offset="100%"/></linearGradient><linearGradient x1="71.21%" y1="-35.8%" x2="21.93%" y2="103.69%" id="o"><stop stop-color="#80B4D6" offset="0%"/><stop stop-color="#5DC2B8" offset="100%"/></linearGradient><linearGradient x1="67.598%" y1=".038%" x2="21.757%" y2="117.229%" id="p"><stop stop-color="#79C9BA" offset="0%"/><stop stop-color="#4FBFAD" offset="100%"/></linearGradient><linearGradient x1="113.035%" y1="4.101%" x2="27.393%" y2="122.049%" id="q"><stop stop-color="#43B98C" offset="0%"/><stop stop-color="#20AF75" offset="100%"/></linearGradient><linearGradient x1="67.582%" y1="-32.53%" x2="15.289%" y2="212.457%" id="r"><stop stop-color="#EC422E" offset="0%"/><stop stop-color="#ED4B49" offset="100%"/></linearGradient><linearGradient x1="60.914%" y1="15.429%" x2="47.496%" y2="128.901%" id="s"><stop stop-color="#5F5F5F" offset="0%"/><stop stop-color="#777" offset="100%"/></linearGradient><linearGradient x1="119.992%" y1="6.168%" x2="23.956%" y2="114.308%" id="t"><stop stop-color="#848484" offset="0%"/><stop stop-color="#8D8D8D" offset="100%"/></linearGradient><linearGradient x1="84.411%" y1=".344%" x2="17.495%" y2="175.284%" id="u"><stop stop-color="#8067AA" offset="0%"/><stop stop-color="#A086BB" offset="100%"/></linearGradient><linearGradient x1="76.695%" y1="-62.113%" x2="-1.01%" y2="115.294%" id="v"><stop stop-color="#AB89BC" offset="0%"/><stop stop-color="#939ACB" offset="100%"/></linearGradient><linearGradient x1="96.025%" y1="1.717%" x2="-47.925%" y2="234.09%" id="w"><stop stop-color="#95BED9" offset="0%"/><stop stop-color="#79A9BF" offset="100%"/></linearGradient><linearGradient x1="81.123%" y1="-9.194%" x2="5.967%" y2="110.431%" id="x"><stop stop-color="#757575" offset="0%"/><stop stop-color="#8D8D8D" offset="100%"/></linearGradient><linearGradient x1="101.691%" y1="-29.035%" x2="15.408%" y2="110.09%" id="y"><stop stop-color="#7C7C7C" offset="0%"/><stop stop-color="#909090" offset="100%"/></linearGradient><linearGradient x1="92.029%" y1="-10.205%" x2="14.049%" y2="123.8%" id="z"><stop stop-color="#EC4F89" offset="0%"/><stop stop-color="#C367A6" offset="100%"/></linearGradient><linearGradient x1="75.565%" y1="-24.909%" x2="1.772%" y2="111.379%" id="A"><stop stop-color="#929292" offset="0%"/><stop stop-color="#A0A0A0" offset="100%"/></linearGradient><linearGradient x1="84.695%" y1="-7.273%" x2="10.907%" y2="102.163%" id="B"><stop stop-color="#A1A1A1" offset="0%"/><stop stop-color="#A8A8A8" offset="100%"/></linearGradient><linearGradient x1="78.411%" y1="-11.814%" x2="4.623%" y2="100.429%" id="C"><stop stop-color="#AE65A6" offset="0%"/><stop stop-color="#D488B8" offset="100%"/></linearGradient><linearGradient x1="73.2%" y1="-25.814%" x2="-33.835%" y2="473.2%" id="D"><stop stop-color="#ED4C3B" offset="0%"/><stop stop-color="#EE525A" offset="100%"/></linearGradient><linearGradient x1="83.711%" y1="-47.182%" x2="-32.018%" y2="346.998%" id="E"><stop stop-color="#EB5FA1" offset="0%"/><stop stop-color="#CD5E93" offset="100%"/></linearGradient><linearGradient x1="105.45%" y1="-69.946%" x2="-20.445%" y2="242.331%" id="F"><stop stop-color="#ED502E" offset="0%"/><stop stop-color="#E76030" offset="100%"/></linearGradient><linearGradient x1="89.835%" y1="-26.195%" x2="15.918%" y2="157.723%" id="G"><stop stop-color="#E3512F" offset="0%"/><stop stop-color="#E1502F" offset="100%"/></linearGradient><linearGradient x1="160.375%" y1="-118.412%" x2="-12.42%" y2="144.008%" id="H"><stop stop-color="#818181" offset="0%"/><stop stop-color="#8F8F8F" offset="100%"/></linearGradient><linearGradient x1="88.257%" y1="-108.776%" x2="23.023%" y2="195.239%" id="I"><stop stop-color="#9B9B9B" offset="0%"/><stop stop-color="#A3A3A3" offset="100%"/></linearGradient><linearGradient x1="110.179%" y1="-45.085%" x2="13.46%" y2="138.093%" id="J"><stop stop-color="#B1B1B1" offset="0%"/><stop stop-color="#C1C1C1" offset="100%"/></linearGradient><linearGradient x1="100.409%" y1="-26.302%" x2="-105.139%" y2="473.534%" id="K"><stop stop-color="#747474" offset="0%"/><stop stop-color="#878787" offset="100%"/></linearGradient><linearGradient x1="73.481%" y1="-38.804%" x2="-17.639%" y2="168.83%" id="L"><stop stop-color="#C4C4C4" offset="0%"/><stop stop-color="#B5B5B5" offset="100%"/></linearGradient><linearGradient x1="75.286%" y1="-39.842%" x2="11.601%" y2="187.762%" id="M"><stop stop-color="#ACACAC" offset="0%"/><stop stop-color="#A1A1A1" offset="100%"/></linearGradient><linearGradient x1="77.067%" y1="-127.717%" x2="23.24%" y2="244.871%" id="N"><stop stop-color="#929292" offset="0%"/><stop stop-color="#A5A5A5" offset="100%"/></linearGradient><linearGradient x1="111.73%" y1="-8.314%" x2="26.4%" y2="113.163%" id="O"><stop stop-color="#6E6E6E" offset="0%"/><stop stop-color="#6E6E6E" offset="100%"/></linearGradient><linearGradient x1="1544.509%" y1="-967.689%" x2="-689.991%" y2="465.587%" id="P"><stop stop-color="#656565" offset="0%"/><stop stop-color="#717171" offset="100%"/></linearGradient><linearGradient x1="113.805%" y1="-148.085%" x2="12.33%" y2="138.384%" id="Q"><stop stop-color="#A8A8A8" offset="0%"/><stop stop-color="#A5A5A5" offset="100%"/></linearGradient><linearGradient x1="86.576%" y1="-129.019%" x2="30.557%" y2="184.938%" id="R"><stop stop-color="#B7B7B7" offset="0%"/><stop stop-color="#9C9C9C" offset="100%"/></linearGradient><linearGradient x1="85.622%" y1="-52.983%" x2="15.475%" y2="197.986%" id="S"><stop stop-color="#6C6C6C" offset="0%"/><stop stop-color="#7B7B7B" offset="100%"/></linearGradient><linearGradient x1="85.239%" y1=".571%" x2="21.302%" y2="153.844%" id="T"><stop stop-color="#7A7A7A" offset="0%"/><stop stop-color="#979797" offset="100%"/></linearGradient><linearGradient x1="59.768%" y1="-275.494%" x2="21.063%" y2="663.347%" id="U"><stop stop-color="#696969" offset="0%"/><stop stop-color="#626262" offset="100%"/></linearGradient><linearGradient x1="78.198%" y1="-64.149%" x2=".251%" y2="113.795%" id="V"><stop stop-color="#9D9D9D" offset="0%"/><stop stop-color="#9F9F9F" offset="100%"/></linearGradient><linearGradient x1="92.396%" y1="-53.252%" x2="-354.266%" y2="925.252%" id="W"><stop stop-color="#616161" offset="0%"/><stop stop-color="#979797" offset="100%"/></linearGradient><linearGradient x1="98.511%" y1=".408%" x2="-35.398%" y2="202.233%" id="X"><stop stop-color="#B4B4B4" offset="0%"/><stop stop-color="#9E9E9E" offset="100%"/></linearGradient><linearGradient x1="66.282%" y1="-16.688%" x2="-182.14%" y2="974.83%" id="Y"><stop stop-color="#B6B6B6" offset="0%"/><stop stop-color="#A9A9A9" offset="100%"/></linearGradient><linearGradient x1="85.608%" y1="-14.983%" x2="7.337%" y2="111.2%" id="Z"><stop stop-color="#878787" offset="0%"/><stop stop-color="#999" offset="100%"/></linearGradient><linearGradient x1="114.294%" y1="-30.459%" x2="11.826%" y2="108.315%" id="aa"><stop stop-color="#8C8C8C" offset="0%"/><stop stop-color="#A0A0A0" offset="100%"/></linearGradient><linearGradient x1="92.712%" y1="-9.774%" x2="16.114%" y2="116.014%" id="ab"><stop stop-color="#858585" offset="0%"/><stop stop-color="#8C8C8C" offset="100%"/></linearGradient><linearGradient x1="84.945%" y1="-21.431%" x2="-4.974%" y2="115.298%" id="ac"><stop stop-color="#A2A2A2" offset="0%"/><stop stop-color="#AFAFAF" offset="100%"/></linearGradient><linearGradient x1="93.379%" y1="-22.195%" x2="19.154%" y2="107.015%" id="ad"><stop stop-color="#B0B0B0" offset="0%"/><stop stop-color="#B5B5B5" offset="100%"/></linearGradient><linearGradient x1="78.304%" y1="-10.014%" x2="4.941%" y2="95.211%" id="ae"><stop stop-color="#878787" offset="0%"/><stop stop-color="#ADADAD" offset="100%"/></linearGradient><linearGradient x1="73.585%" y1="-21.452%" x2="-9.287%" y2="369.939%" id="af"><stop stop-color="#7B7B7B" offset="0%"/><stop stop-color="#828282" offset="100%"/></linearGradient><linearGradient x1="82.387%" y1="-36.026%" x2="-8.526%" y2="272.358%" id="ag"><stop stop-color="#919191" offset="0%"/><stop stop-color="#848484" offset="100%"/></linearGradient></defs><g fill="none" fill-rule="evenodd"><path d="M316.59 126.99l-64.03 28.98-117.6-72.43-71.64 102.45L34.99 229H519V118.24L389 0l-72.41 126.99z" fill="#F4F4F4"/><path d="M318.11 126.31l-65.55 29.66 50.48 40.32 15.07-69.98z" fill="url(#a)"/><path d="M303.04 196.29l-50.48-40.32-9.8 41.98 60.28-1.66z" fill="url(#b)"/><path d="M242.76 197.95l9.8-41.98-56.15 35.45 46.35 6.53z" fill="url(#c)"/><path d="M63.1 186.26L50.58 229h50.36l31.55-27.24-69.39-15.5z" fill="url(#d)"/><path d="M30.1 210.57l.83 18.43h19.65l12.52-42.74-33 24.31z" fill="url(#e)"/><path d="M100.94 229h38.4l-6.85-27.24L100.94 229z" fill="url(#f)"/><path d="M196.41 191.42L194.72 229h25.51l22.53-31.05-46.35-6.53z" fill="url(#g)"/><path d="M132.49 201.76l25.5 27.24h36.73l1.69-37.58-63.92 10.34z" fill="url(#h)"/><path d="M139.34 229h18.65l-25.5-27.24 6.85 27.24z" fill="url(#i)"/><path d="M457.2 191.04l-23.07-54.07-23.58 75.2 46.65-21.13z" fill="url(#j)"/><path d="M457.2 191.04l61.8-19.7v-1.14l-84.87-33.23 23.07 54.07z" fill="url(#k)"/><path d="M434.13 136.97L519 170.2v-9.7l-7.28-47.01-77.59 23.48z" fill="url(#l)"/><path d="M519 160.5v-45.09l-7.28-1.92L519 160.5z" fill="url(#m)"/><path d="M511.72 113.49L389.87 14.44l44.26 122.53 77.59-23.48z" fill="url(#n)"/><path d="M252.56 155.97l-115.6-58.43 59.45 93.88 56.15-35.45z" fill="url(#o)"/><path d="M196.41 191.42l-59.45-93.88-4.47 104.22 63.92-10.34z" fill="url(#p)"/><path d="M136.96 97.54L63.1 186.26l69.39 15.5 4.47-104.22z" fill="url(#q)"/><path d="M410.55 212.17l7.68 16.83h32.57l6.4-37.96-46.65 21.13z" fill="url(#r)"/><path d="M434.13 136.97L389.87 14.44l-12.45 102.99 56.71 19.54z" fill="url(#s)"/><path d="M389.87 14.44l-71.76 111.87 59.31-8.88 12.45-102.99z" fill="url(#t)"/><path d="M262.77 221.66l32.56 7.34h24.23l-16.52-32.71-40.27 25.37z" fill="url(#u)"/><path d="M262.77 221.66l40.27-25.37-60.28 1.66 20.01 23.71z" fill="url(#v)"/><path d="M242.76 197.95L220.23 229h31.11l11.43-7.34-20.01-23.71z" fill="url(#w)"/><path d="M410.55 212.17l23.58-75.2-82.56 23.8 58.98 51.4z" fill="url(#x)"/><path d="M351.57 160.77l82.56-23.8-56.71-19.54-25.85 43.34z" fill="url(#y)"/><path d="M351.57 160.77L325.06 229h21.17l64.32-16.83-58.98-51.4z" fill="url(#z)"/><path d="M377.42 117.43l-59.31 8.88 33.46 34.46 25.85-43.34z" fill="url(#A)"/><path d="M351.57 160.77l-33.46-34.46-15.07 69.98 48.53-35.52z" fill="url(#B)"/><path d="M303.04 196.29L319.56 229h5.5l26.51-68.23-48.53 35.52z" fill="url(#C)"/><path d="M403.48 229h14.75l-7.68-16.83-7.07 16.83z" fill="url(#D)"/><path d="M346.23 229h57.25l7.07-16.83L346.23 229z" fill="url(#E)"/><path d="M450.8 229h67.41l-61.01-37.96-6.4 37.96z" fill="url(#F)"/><path d="M518.21 229h.79v-57.66l-61.8 19.7L518.21 229z" fill="url(#G)"/><path d="M316.59 126.99l-43.18 19.54 33.25 26.56 9.93-46.1z" fill="url(#H)"/><path d="M306.66 173.09l-33.25-26.56-20.85 9.44-28.14-14.22-7.9 33.83 90.14-2.49z" fill="url(#I)"/><path d="M216.52 175.58l7.9-33.83-21.72-10.98-55.49 35.03 69.31 9.78z" fill="url(#J)"/><path d="M30.1 210.57L.04 229h63.57l-9.14-36.38-24.37 17.95z" fill="url(#K)"/><path d="M147.21 165.8l-2.84 63.2h33.37l38.78-53.42-69.31-9.78z" fill="url(#L)"/><path d="M69.69 178.34l-6.59 7.92-4.03 2.97L96.3 229h48.07l2.84-63.2-77.52 12.54z" fill="url(#M)"/><path d="M54.47 192.62L63.61 229H96.3l-37.23-39.77-4.6 3.39z" fill="url(#N)"/><path d="M511.72 113.49l-14.47-11.76-29.82 95.11L519 173.47v-50.86l-3.46-8.11-3.82-1.01z" fill="url(#O)"/><path d="M519 122.61v-7.2l-3.46-.91 3.46 8.11z" fill="url(#P)"/><path d="M202.7 130.77l-65.74-33.23-18.74 22.5 28.99 45.76 55.49-35.03z" fill="url(#Q)"/><path d="M118.22 120.04l-48.53 58.3 77.52-12.54-28.99-45.76z" fill="url(#R)"/><path d="M482.11 229H519v-55.53l-51.57 23.37L482.11 229z" fill="url(#S)"/><path d="M246.43 211.03L326.17 229h8.73l-28.24-55.91-60.23 37.94z" fill="url(#T)"/><path d="M254.18 229h71.99l-79.74-17.97 7.75 17.97z" fill="url(#U)"/><path d="M246.43 211.03l60.23-37.94-90.14 2.49 29.91 35.45z" fill="url(#V)"/><path d="M242.27 229h11.91l-7.75-17.97-4.16 17.97z" fill="url(#W)"/><path d="M216.52 175.58L177.74 229h40.72l27.97-17.97-29.91-35.45z" fill="url(#X)"/><path d="M218.46 229h23.81l4.16-17.97L218.46 229z" fill="url(#Y)"/><path d="M467.43 196.84l29.82-95.11-14.33-11.65-103.68 29.89 88.19 76.87z" fill="url(#Z)"/><path d="M379.24 119.97l103.68-29.89-26.71-21.71-38.33-13.2-38.64 64.8z" fill="url(#aa)"/><path d="M379.24 119.97L336.88 229h7.62l122.93-32.16-88.19-76.87z" fill="url(#ab)"/><path d="M417.88 55.17l-59.89 8.96-13.12 20.45 34.37 35.39 38.64-64.8z" fill="url(#ac)"/><path d="M379.24 119.97l-34.37-35.39-26.76 41.73-1.52.68-9.93 46.1 72.58-53.12z" fill="url(#ad)"/><path d="M306.66 173.09L334.9 229h1.98l42.36-109.03-72.58 53.12z" fill="url(#ae)"/><path d="M453.93 229h28.18l-14.68-32.16-13.5 32.16z" fill="url(#af)"/><path d="M344.5 229h109.43l13.5-32.16L344.5 229z" fill="url(#ag)"/><path d="M25.56 229h.6l5.79-19.79-.76.55L25.56 229z" fill="#BDBEC0"/></g></svg>