<svg width="411" height="169" viewBox="0 0 411 169" xmlns="http://www.w3.org/2000/svg"><title>Untitled 2</title><defs><linearGradient x1="1454.008%" y1="-1868.562%" x2="-54.456%" y2="261.438%" id="a"><stop stop-color="#EC422E" offset="0%"/><stop stop-color="#ED4B49" offset="100%"/></linearGradient><linearGradient x1="331.526%" y1="-531.577%" x2="-9.971%" y2="127.814%" id="b"><stop stop-color="#7857A1" offset="0%"/><stop stop-color="#6655A0" offset="100%"/></linearGradient><linearGradient x1="108.891%" y1="-266.671%" x2="30.971%" y2="183.939%" id="c"><stop stop-color="#535F9F" offset="0%"/><stop stop-color="#74A1C2" offset="100%"/></linearGradient><linearGradient x1="275.146%" y1="-327.784%" x2="-33.547%" y2="119.995%" id="d"><stop stop-color="#83CDC4" offset="0%"/><stop stop-color="#85B7C3" offset="100%"/></linearGradient><linearGradient x1="293.118%" y1="-969.773%" x2="-208.509%" y2="977.084%" id="e"><stop stop-color="#ED4C3B" offset="0%"/><stop stop-color="#EE525A" offset="100%"/></linearGradient><linearGradient x1="93.694%" y1="-7.091%" x2="3.857%" y2="112.269%" id="f"><stop stop-color="#56559A" offset="0%"/><stop stop-color="#729FBC" offset="100%"/></linearGradient><linearGradient x1="93.327%" y1="-4.795%" x2=".72%" y2="100.367%" id="g"><stop stop-color="#70ACBB" offset="0%"/><stop stop-color="#61C0B5" offset="100%"/></linearGradient><linearGradient x1="151.325%" y1="-55.526%" x2="-81.752%" y2="178.935%" id="h"><stop stop-color="#8AAE47" offset="0%"/><stop stop-color="#74AD4D" offset="100%"/></linearGradient><linearGradient x1="104.215%" y1="-175.574%" x2="23.904%" y2="184.329%" id="i"><stop stop-color="#67C1B6" offset="0%"/><stop stop-color="#51BDA1" offset="100%"/></linearGradient><linearGradient x1="72.94%" y1="-25.515%" x2="6.101%" y2="84.422%" id="j"><stop stop-color="#58C0AD" offset="0%"/><stop stop-color="#31B794" offset="100%"/></linearGradient><linearGradient x1="1228.725%" y1="-1044.712%" x2="49.727%" y2="135.405%" id="k"><stop stop-color="#60C1AA" offset="0%"/><stop stop-color="#4FBC97" offset="100%"/></linearGradient><linearGradient x1="88.035%" y1="3.647%" x2="-15.53%" y2="124.33%" id="l"><stop stop-color="#54A179" offset="0%"/><stop stop-color="#5DA14E" offset="100%"/></linearGradient><linearGradient x1="279.995%" y1="-624.403%" x2="-131.913%" y2="424.561%" id="m"><stop stop-color="#45B886" offset="0%"/><stop stop-color="#47A852" offset="100%"/></linearGradient><linearGradient x1="268.681%" y1="-2225.069%" x2="16.482%" y2="288.645%" id="n"><stop stop-color="#ED502E" offset="0%"/><stop stop-color="#E76030" offset="100%"/></linearGradient><linearGradient x1="75.356%" y1="-32.819%" x2="-21.24%" y2="79.352%" id="o"><stop stop-color="#ED4636" offset="0%"/><stop stop-color="#EA472E" offset="100%"/></linearGradient><linearGradient x1="81.353%" y1="-7.069%" x2="14.914%" y2="110.077%" id="p"><stop stop-color="#ED4F36" offset="0%"/><stop stop-color="#ED5075" offset="100%"/></linearGradient><linearGradient x1="111.046%" y1="-390.734%" x2="20.584%" y2="330.816%" id="q"><stop stop-color="#ED4838" offset="0%"/><stop stop-color="#E85976" offset="100%"/></linearGradient><linearGradient x1="97.969%" y1=".558%" x2="14.136%" y2="133.919%" id="r"><stop stop-color="#D64A8E" offset="0%"/><stop stop-color="#9E7AB4" offset="100%"/></linearGradient><linearGradient x1="408.455%" y1="-815.816%" x2="-119.933%" y2="339.073%" id="s"><stop stop-color="#EF6D93" offset="0%"/><stop stop-color="#AB73AF" offset="100%"/></linearGradient><linearGradient x1="109.546%" y1="-306.678%" x2="24.815%" y2="188.978%" id="t"><stop stop-color="#714598" offset="0%"/><stop stop-color="#784798" offset="100%"/></linearGradient><linearGradient x1="79.983%" y1="-6.224%" x2="-19.801%" y2="95.857%" id="u"><stop stop-color="#3A317D" offset="0%"/><stop stop-color="#7F65A9" offset="100%"/></linearGradient><linearGradient x1="265.89%" y1="-282.357%" x2="-8.511%" y2="106.87%" id="v"><stop stop-color="#6C6C6C" offset="0%"/><stop stop-color="#7B7B7B" offset="100%"/></linearGradient><linearGradient x1="159.64%" y1="-208.457%" x2="-1.704%" y2="100.795%" id="w"><stop stop-color="#696969" offset="0%"/><stop stop-color="#626262" offset="100%"/></linearGradient><linearGradient x1="107.843%" y1="-107.183%" x2="30.124%" y2="149.056%" id="x"><stop stop-color="#616161" offset="0%"/><stop stop-color="#979797" offset="100%"/></linearGradient><linearGradient x1="163.425%" y1="-154.628%" x2="-13.39%" y2="100.163%" id="y"><stop stop-color="#B6B6B6" offset="0%"/><stop stop-color="#A9A9A9" offset="100%"/></linearGradient><linearGradient x1="101.653%" y1="-158.34%" x2="10.63%" y2="197.445%" id="z"><stop stop-color="#7B7B7B" offset="0%"/><stop stop-color="#828282" offset="100%"/></linearGradient><linearGradient x1="79.825%" y1="-24.32%" x2="-10.353%" y2="145.431%" id="A"><stop stop-color="#5C5C5C" offset="0%"/><stop stop-color="#959595" offset="100%"/></linearGradient><linearGradient x1="105.509%" y1="-23.471%" x2="-67.787%" y2="204.36%" id="B"><stop stop-color="#9B9B9B" offset="0%"/><stop stop-color="#A2A2A2" offset="100%"/></linearGradient><linearGradient x1="124.196%" y1="-44.388%" x2="-32.019%" y2="161.295%" id="C"><stop stop-color="#A4A4A4" offset="0%"/><stop stop-color="#999" offset="100%"/></linearGradient><linearGradient x1="79.636%" y1="-45.921%" x2="-50.196%" y2="218.788%" id="D"><stop stop-color="#A1A1A1" offset="0%"/><stop stop-color="#8A8A8A" offset="100%"/></linearGradient><linearGradient x1="357.075%" y1="-353.965%" x2="-24.876%" y2="105.613%" id="E"><stop stop-color="#767676" offset="0%"/><stop stop-color="gray" offset="100%"/></linearGradient><linearGradient x1="702.877%" y1="-790.725%" x2="-747.71%" y2="875.54%" id="F"><stop stop-color="#767676" offset="0%"/><stop stop-color="#747474" offset="100%"/></linearGradient><linearGradient x1="68.573%" y1="-60.02%" x2="-5.826%" y2="197.518%" id="G"><stop stop-color="#7C7C7C" offset="0%"/><stop stop-color="#828282" offset="100%"/></linearGradient><linearGradient x1="106.195%" y1="-41.598%" x2="16.026%" y2="155.07%" id="H"><stop stop-color="#787878" offset="0%"/><stop stop-color="#878787" offset="100%"/></linearGradient><linearGradient x1="118.28%" y1="-31.41%" x2="-63.026%" y2="252.429%" id="I"><stop stop-color="#7A7A7A" offset="0%"/><stop stop-color="#909090" offset="100%"/></linearGradient><linearGradient x1="126.163%" y1="-170.139%" x2="-18.19%" y2="143.439%" id="J"><stop stop-color="#9A9A9A" offset="0%"/><stop stop-color="#939393" offset="100%"/></linearGradient><linearGradient x1="106.961%" y1="-94.247%" x2="22.453%" y2="138.113%" id="K"><stop stop-color="#595959" offset="0%"/><stop stop-color="#5D5D5D" offset="100%"/></linearGradient><linearGradient x1="76.133%" y1="-16%" x2="-44.673%" y2="193.074%" id="L"><stop stop-color="#383838" offset="0%"/><stop stop-color="#757575" offset="100%"/></linearGradient></defs><g fill="none" fill-rule="evenodd"><path d="M147.53 60.08L322 129 410.57 0h-45.08L0 37.67v88.78L57 169l90.53-108.92z" fill="#EFEEEE"/><path d="M304.71 0h-2.5l1.15 4.06L304.71 0z" fill="url(#a)"/><path d="M170.17 0h-10.88l4.18 16.16L170.17 0z" fill="url(#b)"/><path d="M163.47 16.16L159.29 0h-53.36l-9.72 24.17 67.26-8.01z" fill="url(#c)"/><path d="M105.93 0H85.42l10.79 24.17L105.93 0z" fill="url(#d)"/><path d="M302.21 0h-4.43l5.58 4.06L302.21 0z" fill="url(#e)"/><path d="M96.21 24.17l48.75 37.56 18.51-45.57-67.26 8.01z" fill="url(#f)"/><path d="M57.09 150.03l87.87-88.3-48.75-37.56-39.12 125.86z" fill="url(#g)"/><path d="M0 69.43v48.13l57.09 32.47L0 69.43z" fill="url(#h)"/><path d="M96.21 24.17L85.42 0H20.51l-4.03 4.44 79.73 19.73z" fill="url(#i)"/><path d="M16.48 4.44l40.61 145.59L96.21 24.17 16.48 4.44z" fill="url(#j)"/><path d="M20.51 0h-3.23l-.8 4.44L20.51 0z" fill="url(#k)"/><path d="M16.48 4.44L0 2.9v66.53l57.09 80.6L16.48 4.44z" fill="url(#l)"/><path d="M17.28 0H0v2.9l16.48 1.54.8-4.44z" fill="url(#m)"/><path d="M343.1 0h-38.39l-1.35 4.06L343.1 0z" fill="url(#n)"/><path d="M312.83 109.37L410.19 0H343.1l-39.74 4.06 9.47 105.31z" fill="url(#o)"/><path d="M231.73 6.81l81.1 102.56-9.47-105.31-71.63 2.75z" fill="url(#p)"/><path d="M303.36 4.06L297.78 0h-60.76l-5.29 6.81 71.63-2.75z" fill="url(#q)"/><path d="M144.96 61.73l167.87 47.64-81.1-102.56-86.77 54.92z" fill="url(#r)"/><path d="M237.02 0h-9.17l3.88 6.81L237.02 0z" fill="url(#s)"/><path d="M231.73 6.81L227.85 0h-57.68l-6.7 16.16 68.26-9.35z" fill="url(#t)"/><path d="M163.47 16.16l-18.51 45.57 86.77-54.92-68.26 9.35z" fill="url(#u)"/><path d="M381.92 0h-20.46l9.37 33.31L381.92 0z" fill="url(#v)"/><path d="M182.97 0h-34.62l13.29 51.41L182.97 0z" fill="url(#w)"/><path d="M161.64 51.41L148.35 0H86.54L61.07 63.39l100.57-11.98z" fill="url(#x)"/><path d="M86.54 0H32.76l28.31 63.39L86.54 0z" fill="url(#y)"/><path d="M361.46 0h-36.39l45.76 33.31L361.46 0z" fill="url(#z)"/><path d="M61.07 63.39l46.54 35.86 37.35-37.52 11.2 3.18 5.48-13.5L61.07 63.39z" fill="url(#A)"/><path d="M37.58 138.94l19.51 11.09 50.52-50.78-46.54-35.86-23.49 75.55z" fill="url(#B)"/><path d="M32.76 0H0v48.28l61.07 15.11L32.76 0z" fill="url(#C)"/><path d="M61.07 63.39L0 48.28v69.28l37.58 21.38 23.49-75.55z" fill="url(#D)"/><path d="M381.51 32.23L410.19 0h-28.27l-11.09 33.31 10.68-1.08z" fill="url(#E)"/><path d="M371.72 43.22l9.79-10.99-10.68 1.08.89 9.91z" fill="url(#F)"/><path d="M263.71 37.43l53.24 67.32 54.77-61.53-.89-9.91-107.12 4.12z" fill="url(#G)"/><path d="M370.83 33.31L325.07 0h-32.24l-29.12 37.43 107.12-4.12z" fill="url(#H)"/><path d="M200.44 77.48l112.39 31.89 4.12-4.62-53.24-67.32-63.27 40.05z" fill="url(#I)"/><path d="M292.83 0h-50.41l21.29 37.43L292.83 0z" fill="url(#J)"/><path d="M263.71 37.43L242.42 0h-59.45l-21.33 51.41 102.07-13.98z" fill="url(#K)"/><path d="M161.64 51.41l-5.48 13.5 44.28 12.57 63.27-40.05-102.07 13.98z" fill="url(#L)"/></g></svg>